<?xml version="1.0" encoding="utf-8"?>
<svg version="1.0" width="160pt" height="160pt" viewBox="0 0 160 160" preserveAspectRatio="xMidYMid slice" xmlns="http://www.w3.org/2000/svg">
  <rect x="-2.861" y="-2.409" width="167.41" height="167.84" style="fill: rgb(255, 255, 255); stroke: rgb(255, 255, 255);" transform="matrix(1, 0, 0, 1, -3.021995157650524, -3.1908303561046054)"/>
  <path d="M 23.391 77.209 L 23.391 137.709 L 80.391 137.709 L 137.391 137.709 L 137.391 77.209 L 137.391 16.709 L 80.391 16.709 L 23.391 16.709 L 23.391 77.209 Z M 52.391 37.709 L 52.391 53.709 L 40.391 53.709 L 28.391 53.709 L 28.391 37.709 L 28.391 21.709 L 40.391 21.709 L 52.391 21.709 L 52.391 37.709 Z M 132.391 37.709 L 132.391 53.709 L 94.891 53.709 L 57.391 53.709 L 57.391 37.709 L 57.391 21.709 L 94.891 21.709 L 132.391 21.709 L 132.391 37.709 Z M 94.391 77.209 L 94.391 95.709 L 61.391 95.709 L 28.391 95.709 L 28.391 77.209 L 28.391 58.709 L 61.391 58.709 L 94.391 58.709 L 94.391 77.209 Z M 132.391 77.209 L 132.391 95.709 L 115.891 95.709 L 99.391 95.709 L 99.391 77.209 L 99.391 58.709 L 115.891 58.709 L 132.391 58.709 L 132.391 77.209 Z M 66.391 116.709 L 66.391 132.709 L 47.391 132.709 L 28.391 132.709 L 28.391 116.709 L 28.391 100.709 L 47.391 100.709 L 66.391 100.709 L 66.391 116.709 Z M 132.391 116.709 L 132.391 132.709 L 101.391 132.709 L 70.391 132.709 L 70.391 116.709 L 70.391 100.709 L 101.391 100.709 L 132.391 100.709 L 132.391 116.709 Z" style="fill: rgb(70, 56, 171);" fill="#000000" stroke="none"/>
</svg>