<?xml version="1.0" encoding="utf-8"?>
<svg version="1.1" id="Layer_1" x="0px" y="0px" width="100%" viewBox="0 0 1024 512" enable-background="new 0 0 1024 1024" xmlns="http://www.w3.org/2000/svg">
  <defs>
    <path id="path-0" d="M 1050.414 421.211 C 1025.91 438.013 1010 451.786 995.447 469.519 C 982.891 495.067 982.947 514.952 984.109 537.46 C 991.775 566.393 1001.045 586.106 1012.554 605.593 C 1043.617 649.478 1085.736 663.942 1129.926 676.533 C 1182.533 684.33 1220.83 688.734 1255.15 672.321 C 1281.218 638.763 1290.117 608.128 1297.82 572.502 C 1304.395 525.818 1302.771 488.789 1301.55 452.962 C 1296.579 426.85 1279.756 420.746 1260.437 417.339 C 1237.96 415.905 1220.732 416.592 1202.064 419.246 C 1182.923 420.81 1168.95 419.302 1155.235 420.904 L 1153.614 420.978 C 1152.075 421.108 1150.571 421.333 1149.041 421.519" style="fill: none;"/>
  </defs>
  <g style="transform-origin: 520.904px 515.234px;" transform="matrix(0, 0.975196, 0.975196, 0, -12.031085, -260.541687)">
    <path d="M 589.635 722.134 C 594.15 722.134 597.885 725.463 598.522 729.801 L 615.269 729.801 C 615.906 725.463 619.641 722.134 624.156 722.134 C 628.67 722.134 632.406 725.463 633.043 729.801 L 649.41 729.801 C 650.205 725.653 653.852 722.519 658.232 722.519 C 662.612 722.519 666.259 725.653 667.054 729.801 L 691.757 729.801 L 691.757 780.498 L 558.729 780.498 L 558.729 729.801 L 580.748 729.801 C 581.385 725.463 585.121 722.134 589.635 722.134 Z" style="fill: rgb(70, 56, 171); stroke: rgb(70, 56, 171);"/>
    <path d="M 589.48 803.709 C 593.995 803.709 597.73 807.038 598.367 811.375 L 615.114 811.375 C 615.751 807.038 619.486 803.709 624.001 803.709 C 628.515 803.709 632.251 807.038 632.888 811.375 L 649.255 811.375 C 650.05 807.228 653.697 804.094 658.077 804.094 C 662.457 804.094 666.104 807.228 666.899 811.375 L 691.602 811.375 L 691.602 862.073 L 558.574 862.073 L 558.574 811.375 L 580.593 811.375 C 581.23 807.038 584.966 803.709 589.48 803.709 Z" style="fill: rgb(70, 56, 171); stroke: rgb(70, 56, 171);"/>
    <path d="M 589.635 886.463 C 594.15 886.463 597.885 889.791 598.522 894.129 L 615.269 894.129 C 615.906 889.791 619.641 886.463 624.156 886.463 C 628.67 886.463 632.406 889.791 633.043 894.129 L 649.41 894.129 C 650.205 889.981 653.852 886.848 658.232 886.848 C 662.612 886.848 666.259 889.981 667.054 894.129 L 691.757 894.129 L 691.757 944.827 L 558.729 944.827 L 558.729 894.129 L 580.748 894.129 C 581.385 889.791 585.121 886.463 589.635 886.463 Z" style="fill: rgb(70, 56, 171); stroke: rgb(70, 56, 171);"/>
    <g transform="matrix(15.153297, 0, 0, 15.153297, 339.084869, 60.680202)" style="">
      <path fill-rule="evenodd" clip-rule="evenodd" d="M5 5H9.5V9.5H5V5ZM6.5 6.5V8H8V6.5H6.5Z" style="fill: rgb(70, 56, 171);"/>
      <path fill-rule="evenodd" clip-rule="evenodd" d="M14.4999 5H18.9999V9.5H14.4999V5ZM15.9999 6.5V8H17.4999V6.5H15.9999Z" style="fill: rgb(70, 56, 171);"/>
      <path fill-rule="evenodd" clip-rule="evenodd" d="M5 14.5H9.5V19H5V14.5ZM6.5 16V17.5H8V16H6.5Z" style="fill: rgb(70, 56, 171);"/>
      <rect x="5" y="11.25" width="1.5" height="1.5" style="fill: rgb(70, 56, 171);"/>
      <rect x="8" y="11.25" width="1.5" height="1.5" style="fill: rgb(70, 56, 171);"/>
      <rect x="11.1666" y="11.25" width="1.5" height="1.5" style="fill: rgb(70, 56, 171);"/>
      <rect x="11.1666" y="14.375" width="1.5" height="1.5" style="fill: rgb(70, 56, 171);"/>
      <rect x="11.1666" y="17.5" width="1.5" height="1.5" style="fill: rgb(70, 56, 171);"/>
      <rect x="11.1666" y="8.125" width="1.5" height="1.5" style="fill: rgb(70, 56, 171);"/>
      <rect x="11.1666" y="5" width="1.5" height="1.5" style="fill: rgb(70, 56, 171);"/>
      <rect x="14.3333" y="11.25" width="1.5" height="1.5" style="fill: rgb(70, 56, 171);"/>
      <rect x="17.4999" y="11.25" width="1.5" height="1.5" style="fill: rgb(70, 56, 171);"/>
      <rect x="14.3333" y="14.375" width="1.5" height="1.5" style="fill: rgb(70, 56, 171);"/>
      <rect x="17.4999" y="14.375" width="1.5" height="1.5" style="fill: rgb(70, 56, 171);"/>
      <rect x="14.3333" y="17.5" width="1.5" height="1.5" style="fill: rgb(70, 56, 171);"/>
      <rect x="17.4999" y="17.5" width="1.5" height="1.5" style="fill: rgb(70, 56, 171);"/>
    </g>
    <path d="M 517.643 993.496 C 506.567 993.496 495.729 992.468 485.224 990.501 L 485.224 646.267 C 485.268 646.259 485.313 646.25 485.358 646.242 L 485.358 454.716 L 557.785 454.716 L 557.785 984.862 L 557.377 984.862 L 557.377 988.969 C 544.611 991.93 531.31 993.496 517.643 993.496 Z" style="stroke: rgb(70, 56, 171); fill-rule: nonzero; fill: rgb(70, 56, 171);"/>
    <path d="M 693.791 247.715 C 693.791 343.198 616.387 420.602 520.904 420.602 C 425.421 420.602 348.017 343.198 348.017 247.715 C 348.017 152.232 425.421 74.828 520.904 74.828 C 616.387 74.828 693.791 152.232 693.791 247.715 Z M 520.904 36.973 C 404.514 36.973 310.162 131.325 310.162 247.715 C 310.162 364.105 404.514 458.457 520.904 458.457 C 637.294 458.457 731.646 364.105 731.646 247.715 C 731.646 131.325 637.294 36.973 520.904 36.973 Z" style="stroke: rgb(70, 56, 171); fill: rgb(70, 56, 171);"/>
  </g>
  <path d="M 175.382 513.692 Q 175.382 521.69 169.43 526.573 Q 163.478 531.455 153.62 531.455 Q 151.109 531.455 146.552 530.804 L 146.552 554.612 Q 146.552 559.727 147.249 560.611 Q 147.947 561.494 152.411 561.68 Q 154.922 561.587 154.922 562.517 Q 154.922 563.354 153.434 563.354 L 152.039 563.354 Q 151.574 563.354 147.714 563.261 Q 143.855 563.168 139.763 563.168 L 128.882 563.261 Q 125.813 563.261 125.348 563.075 Q 124.883 562.889 124.883 562.517 Q 124.883 561.773 126.371 561.773 Q 130.928 561.68 131.811 560.936 Q 132.695 560.192 132.695 556.658 L 132.695 508.856 Q 132.695 502.904 132.23 501.695 Q 131.765 500.486 127.487 500.486 Q 124.976 500.486 124.976 499.742 Q 124.976 498.905 127.301 498.905 L 153.899 498.812 Q 163.664 498.812 168.5 501.788 Q 175.382 506.066 175.382 513.692 Z M 160.409 514.25 Q 160.409 500.486 151.76 500.486 Q 146.552 500.486 146.552 505.043 L 146.552 529.409 Q 150.365 529.409 151.76 529.13 Q 154.457 528.665 156.41 526.991 Q 160.409 523.457 160.409 514.25 Z M 242.386 562.238 Q 242.386 562.982 241.688 563.122 Q 240.991 563.261 238.108 563.261 Q 237.364 563.261 233.923 563.168 Q 227.041 562.982 224.437 562.982 Q 221.368 562.982 219.043 563.075 Q 214.393 563.261 212.719 563.261 Q 210.208 563.261 210.208 562.331 Q 210.208 561.401 215.509 561.308 Q 216.811 561.308 217.462 561.122 Q 218.95 560.936 218.95 560.006 Q 218.95 559.541 217.834 556.1 L 215.881 550.055 Q 215.323 548.009 213.463 542.522 L 211.789 542.522 L 204.535 542.429 Q 200.629 542.336 196.258 542.522 Q 195.421 544.382 193.096 550.892 L 191.05 556.937 Q 190.585 558.332 190.585 559.169 Q 190.585 560.75 192.631 561.215 Q 193.096 561.308 197.188 561.587 Q 198.49 561.68 198.49 562.424 Q 198.49 563.261 196.816 563.261 L 181.471 563.168 Q 180.913 563.261 180.262 563.261 Q 178.96 563.261 178.96 562.331 Q 178.96 561.773 181.843 561.587 Q 185.563 561.401 186.586 560.192 Q 187.609 558.983 189.934 552.38 Q 191.701 547.73 195.049 538.616 L 206.302 507.647 Q 207.139 505.601 208.627 501.23 Q 209.65 498.068 210.208 498.068 Q 210.766 498.068 212.254 502.346 Q 214.114 507.833 228.622 545.684 Q 230.482 550.52 232.342 555.542 Q 233.923 559.82 235.504 560.75 Q 236.713 561.494 241.27 561.401 Q 242.386 561.401 242.386 562.238 Z M 212.812 540.476 Q 212.719 540.197 212.161 538.709 Q 208.441 527.921 206.767 523.55 Q 206.302 522.341 205.465 520.016 L 204.907 518.342 Q 203.233 522.341 200.815 529.409 Q 198.118 537.314 196.909 540.476 Q 197.746 540.476 198.955 540.383 Q 200.071 540.383 201.001 540.383 L 206.209 540.383 Q 208.348 540.383 212.812 540.476 Z M 287.532 544.847 Q 287.532 553.31 281.533 558.844 Q 275.535 564.377 266.235 564.377 Q 260.562 564.377 250.611 560.564 Q 249.867 560.285 249.309 560.285 Q 247.728 560.285 246.891 563.633 Q 246.612 564.656 246.147 564.656 Q 245.403 564.656 245.403 563.354 Q 245.403 562.145 245.868 559.076 Q 246.24 556.565 246.24 553.217 Q 246.24 550.52 246.147 548.939 Q 245.961 545.777 245.961 545.219 Q 245.961 543.731 246.891 543.731 Q 247.821 543.731 248.565 547.73 Q 249.867 554.612 254.424 558.425 Q 259.353 562.517 265.026 562.517 Q 270.048 562.517 273.489 559.355 Q 276.93 556.193 276.93 551.636 Q 276.93 547.73 274.698 545.405 Q 273.024 543.731 263.91 538.802 Q 253.773 533.408 250.146 528.014 Q 246.798 523.085 246.798 516.296 Q 246.798 508.298 252.471 503.044 Q 258.144 497.789 266.793 497.789 Q 271.443 497.789 276.744 500.021 Q 278.511 500.765 279.255 500.765 Q 280.65 500.765 281.115 498.347 Q 281.301 497.51 281.952 497.51 Q 282.882 497.51 282.882 498.719 Q 282.882 499.184 282.696 501.323 Q 282.51 503.462 282.51 504.857 Q 282.51 509.693 282.882 513.041 Q 282.975 513.32 282.975 513.785 Q 282.975 514.622 282.231 514.622 Q 281.394 514.622 280.557 511.646 Q 279.72 508.67 277.627 505.741 Q 275.535 502.811 273.396 501.509 Q 270.606 499.835 266.886 499.835 Q 261.678 499.835 258.609 502.346 Q 255.54 504.857 255.54 509.228 Q 255.54 513.041 258.423 515.971 Q 261.306 518.9 269.49 523.457 Q 279.534 529.037 282.789 532.385 Q 287.532 537.314 287.532 544.847 Z M 335.661 544.847 Q 335.661 553.31 329.662 558.844 Q 323.664 564.377 314.364 564.377 Q 308.691 564.377 298.74 560.564 Q 297.996 560.285 297.438 560.285 Q 295.857 560.285 295.02 563.633 Q 294.741 564.656 294.276 564.656 Q 293.532 564.656 293.532 563.354 Q 293.532 562.145 293.997 559.076 Q 294.369 556.565 294.369 553.217 Q 294.369 550.52 294.276 548.939 Q 294.09 545.777 294.09 545.219 Q 294.09 543.731 295.02 543.731 Q 295.95 543.731 296.694 547.73 Q 297.996 554.612 302.553 558.425 Q 307.482 562.517 313.155 562.517 Q 318.177 562.517 321.618 559.355 Q 325.059 556.193 325.059 551.636 Q 325.059 547.73 322.827 545.405 Q 321.153 543.731 312.039 538.802 Q 301.902 533.408 298.275 528.014 Q 294.927 523.085 294.927 516.296 Q 294.927 508.298 300.6 503.044 Q 306.273 497.789 314.922 497.789 Q 319.572 497.789 324.873 500.021 Q 326.64 500.765 327.384 500.765 Q 328.779 500.765 329.244 498.347 Q 329.43 497.51 330.081 497.51 Q 331.011 497.51 331.011 498.719 Q 331.011 499.184 330.825 501.323 Q 330.639 503.462 330.639 504.857 Q 330.639 509.693 331.011 513.041 Q 331.104 513.32 331.104 513.785 Q 331.104 514.622 330.36 514.622 Q 329.523 514.622 328.686 511.646 Q 327.849 508.67 325.756 505.741 Q 323.664 502.811 321.525 501.509 Q 318.735 499.835 315.015 499.835 Q 309.807 499.835 306.738 502.346 Q 303.669 504.857 303.669 509.228 Q 303.669 513.041 306.552 515.971 Q 309.435 518.9 317.619 523.457 Q 327.663 529.037 330.918 532.385 Q 335.661 537.314 335.661 544.847 Z M 395.874 542.801 L 395.781 544.382 Q 395.781 544.847 395.316 550.241 Q 394.944 554.333 394.944 556.565 Q 394.944 559.355 395.037 561.215 Q 395.13 561.866 395.13 562.796 Q 395.13 563.819 394.665 563.819 Q 394.2 563.819 393.642 562.889 Q 391.596 559.541 389.271 558.518 Q 382.296 564.47 374.298 564.47 Q 362.115 564.47 352.815 555.356 Q 342.957 545.684 342.957 530.99 Q 342.957 516.761 351.838 507.229 Q 360.72 497.696 374.019 497.696 Q 380.157 497.696 384.993 500.486 Q 387.783 502.067 389.085 502.067 Q 391.038 502.067 392.712 500.3 Q 393.921 498.998 394.2 498.998 Q 394.572 498.998 394.572 499.649 Q 394.572 499.928 394.479 500.486 Q 393.921 503.648 393.921 508.298 Q 393.921 508.763 394.014 512.111 Q 394.014 515.366 394.014 516.482 L 394.014 518.528 Q 394.014 520.202 393.084 520.202 Q 392.34 520.202 391.596 516.575 Q 388.248 499.835 376.251 499.835 Q 366.765 499.835 362.487 512.111 Q 359.511 520.481 359.511 532.199 Q 359.511 549.59 366.579 557.681 Q 370.299 561.959 376.344 561.959 Q 389.457 561.959 393.549 544.475 Q 394.2 541.592 395.037 541.592 Q 395.967 541.592 395.874 542.801 Z M 452.931 547.451 Q 452.931 549.218 452.838 550.427 Q 452.466 554.519 452.559 557.03 L 452.652 563.633 Q 440.748 563.168 409.593 563.168 L 405.687 563.168 Q 401.595 563.168 401.595 562.424 Q 401.595 561.68 402.897 561.68 Q 407.547 561.587 408.849 560.378 Q 409.686 559.634 409.686 555.914 L 409.593 505.508 Q 409.593 502.346 409.035 501.602 Q 407.919 500.207 405.594 500.3 L 403.269 500.393 Q 402.246 500.393 402.246 499.649 Q 402.246 498.905 403.548 498.905 Q 404.292 498.905 405.036 498.998 L 428.658 498.998 Q 429.123 498.905 429.681 498.905 Q 430.611 498.905 430.611 499.649 Q 430.611 500.486 428.193 500.486 Q 424.752 500.486 424.148 501.323 Q 423.543 502.16 423.543 508.67 L 423.543 530.804 Q 423.543 537.593 423.915 561.215 Q 425.682 561.308 427.914 561.308 Q 437.679 561.308 441.399 560.564 Q 447.258 559.355 449.397 554.612 Q 450.513 552.194 451.443 546.893 Q 451.722 545.405 452.28 545.405 Q 452.931 545.405 452.931 547.451 Z M 508.682 546.893 Q 508.682 547.079 508.589 555.542 Q 508.496 560.006 508.45 561.959 Q 508.403 563.912 508.403 563.819 Q 483.851 562.703 465.437 563.168 L 457.625 563.354 Q 455.951 563.354 455.951 562.61 Q 455.951 562.052 456.37 561.959 Q 456.788 561.866 459.206 561.68 Q 463.577 561.401 463.949 559.169 Q 464.135 557.96 464.135 556.472 L 464.135 509.321 Q 464.135 503.741 464.042 503.183 Q 463.949 501.695 463.112 501.137 Q 462.275 500.579 459.671 500.579 Q 456.788 500.579 456.788 499.742 Q 456.788 498.812 459.346 498.812 Q 461.903 498.812 466.46 498.719 Q 483.572 498.347 494.453 498.533 L 500.777 498.626 Q 502.823 498.626 505.799 498.254 L 506.636 508.391 Q 507.101 513.227 507.101 514.343 Q 507.101 515.273 506.171 515.273 Q 505.241 515.273 504.962 512.855 Q 504.125 506.438 499.801 503.509 Q 495.476 500.579 487.013 500.579 Q 484.409 500.579 478.085 500.858 L 478.085 528.293 Q 488.315 528.386 490.966 526.852 Q 493.616 525.317 494.546 518.9 Q 495.011 515.459 495.941 515.459 Q 496.778 515.459 496.778 517.133 Q 496.778 518.807 496.499 524.015 Q 496.406 525.782 496.406 528.758 Q 496.406 536.756 496.592 540.848 Q 496.685 541.406 496.685 542.243 Q 496.685 543.359 495.848 543.359 Q 495.197 543.359 495.011 542.941 Q 494.825 542.522 494.453 539.918 Q 493.523 533.315 491.896 531.688 Q 490.268 530.06 484.409 530.06 L 478.085 530.06 L 478.085 561.401 L 484.037 561.308 Q 494.267 561.122 496.499 560.843 Q 499.289 560.471 501.893 558.797 Q 504.218 556.937 505.102 554.798 Q 505.985 552.659 507.008 546.893 Q 507.287 545.498 507.938 545.498 Q 508.682 545.498 508.682 546.893 Z M 564.713 514.901 Q 564.713 515.645 564.062 515.645 Q 563.504 515.645 563.272 515.18 Q 563.039 514.715 562.388 512.018 Q 560.528 504.578 555.227 502.067 Q 552.065 500.579 543.974 500.579 Q 540.254 500.579 535.418 500.858 L 535.418 529.316 L 538.115 529.316 Q 546.857 529.316 549.043 527.456 Q 551.228 525.596 552.344 517.133 Q 552.53 515.924 553.274 515.924 Q 554.018 515.924 554.018 517.319 Q 554.018 516.854 553.925 518.575 Q 553.832 520.295 553.832 524.201 L 553.832 530.246 Q 553.832 536.756 553.925 538.849 Q 554.018 540.941 554.018 542.429 Q 554.018 543.917 553.181 543.917 Q 551.972 543.917 551.786 540.941 Q 551.321 534.152 548.438 532.106 Q 547.043 531.083 543.509 531.083 Q 538.766 531.083 535.418 531.176 L 535.418 553.682 Q 535.418 559.634 536.348 560.657 Q 537.278 561.68 542.765 561.68 Q 544.439 561.68 544.439 562.424 Q 544.439 563.261 542.672 563.261 Q 540.626 563.261 537.743 563.168 Q 531.977 562.982 524.723 562.982 Q 519.608 562.982 515.702 563.261 Q 515.144 563.354 514.4 563.354 Q 513.284 563.354 513.284 562.517 Q 513.284 561.68 516.26 561.587 Q 520.631 561.401 521.096 559.541 Q 521.468 558.797 521.468 556.937 L 521.375 502.997 Q 521.189 501.695 520.306 501.23 Q 519.422 500.765 516.772 500.579 Q 514.121 500.393 514.121 499.742 Q 514.121 498.812 515.981 498.812 L 517.748 498.812 Q 518.12 498.812 524.816 498.719 Q 532.256 498.533 537.929 498.533 Q 546.392 498.44 552.251 498.533 L 558.668 498.626 Q 560.156 498.626 563.132 498.347 Q 563.876 509.507 564.62 513.785 Q 564.713 514.343 564.713 514.901 Z" transform="matrix(1, 0, 0, 1.669649, 361.434052, -749.812317)" style="fill: rgb(70, 56, 171); stroke: rgb(70, 56, 171); text-transform: uppercase;"/>
  <path transform="matrix(1, 0, 0, 1.669649, 361.434052, -749.812317)" style="fill: rgb(70, 56, 171); stroke: rgb(70, 56, 171); text-transform: uppercase;"/>
</svg>